<?xml version="1.0" encoding="UTF-8" standalone="no"?>
<!-- Created with Inkscape (http://www.inkscape.org/) -->

<svg
   width="198"
   height="70"
   viewBox="0 0 52.387499 18.520833"
   version="1.1"
   id="svg1"
   inkscape:version="1.4 (86a8ad7, 2024-10-11)"
   sodipodi:docname="CH_logoLungo.svg"
   inkscape:export-filename="assets\assets\assets\assets\assets\assets\assets\assets\assets\assets\assets\assets\assets\assets\assets\assets\assets\assets\assets\assets\assets\assets\CH_logoLungoBlack.svg"
   inkscape:export-xdpi="96.004585"
   inkscape:export-ydpi="96.004585"
   inkscape:export-batch-path="assets"
   inkscape:export-batch-name="CH_logoLungo"
   xmlns:inkscape="http://www.inkscape.org/namespaces/inkscape"
   xmlns:sodipodi="http://sodipodi.sourceforge.net/DTD/sodipodi-0.dtd"
   xmlns:xlink="http://www.w3.org/1999/xlink"
   xmlns="http://www.w3.org/2000/svg"
   xmlns:svg="http://www.w3.org/2000/svg">
  <sodipodi:namedview
     id="namedview1"
     pagecolor="#ffffff"
     bordercolor="#000000"
     borderopacity="0.25"
     inkscape:showpageshadow="2"
     inkscape:pageopacity="0.0"
     inkscape:pagecheckerboard="false"
     inkscape:deskcolor="#d1d1d1"
     inkscape:document-units="mm"
     showborder="true"
     labelstyle="default"
     inkscape:clip-to-page="false"
     showgrid="true"
     inkscape:zoom="5.6568543"
     inkscape:cx="93.07293"
     inkscape:cy="19.357048"
     inkscape:window-width="2560"
     inkscape:window-height="1417"
     inkscape:window-x="-8"
     inkscape:window-y="-8"
     inkscape:window-maximized="1"
     inkscape:current-layer="layer1"
     inkscape:export-bgcolor="#ffffff00">
    <inkscape:grid
       id="grid45"
       units="mm"
       originx="99"
       originy="35"
       spacingx="0.99999998"
       spacingy="0.99999998"
       empcolor="#0099e5"
       empopacity="0.30196078"
       color="#0099e5"
       opacity="0.14901961"
       empspacing="5"
       enabled="true"
       visible="false"
       dotted="false" />
    <inkscape:page
       x="0"
       y="0"
       width="52.387501"
       height="18.520832"
       id="page2"
       margin="0"
       bleed="0" />
  </sodipodi:namedview>
  <defs
     id="defs1">
    <linearGradient
       id="linearGradient5"
       inkscape:collect="always">
      <stop
         style="stop-color:#ffffff;stop-opacity:1;"
         offset="1"
         id="stop8" />
      <stop
         style="stop-color:#020000;stop-opacity:0;"
         offset="1"
         id="stop9" />
    </linearGradient>
    <linearGradient
       id="linearGradient42"
       inkscape:swatch="gradient">
      <stop
         style="stop-color:#000000;stop-opacity:1;"
         offset="0"
         id="stop43" />
      <stop
         style="stop-color:#000000;stop-opacity:0;"
         offset="1"
         id="stop44" />
    </linearGradient>
    <linearGradient
       id="linearGradient37"
       inkscape:swatch="gradient">
      <stop
         style="stop-color:#000000;stop-opacity:1;"
         offset="0"
         id="stop37" />
      <stop
         style="stop-color:#000000;stop-opacity:0;"
         offset="1"
         id="stop38" />
    </linearGradient>
    <linearGradient
       id="swatch36"
       inkscape:swatch="solid">
      <stop
         style="stop-color:#000000;stop-opacity:1;"
         offset="0"
         id="stop36" />
    </linearGradient>
    <linearGradient
       id="swatch14"
       inkscape:swatch="solid">
      <stop
         style="stop-color:#000000;stop-opacity:1;"
         offset="0"
         id="stop14" />
    </linearGradient>
    <linearGradient
       id="swatch13"
       inkscape:swatch="solid">
      <stop
         style="stop-color:#000000;stop-opacity:1;"
         offset="0"
         id="stop13" />
    </linearGradient>
    <linearGradient
       id="swatch7"
       inkscape:swatch="solid">
      <stop
         style="stop-color:#000000;stop-opacity:1;"
         offset="0"
         id="stop7" />
    </linearGradient>
    <linearGradient
       id="swatch6"
       inkscape:swatch="solid">
      <stop
         style="stop-color:#000000;stop-opacity:1;"
         offset="0"
         id="stop6" />
    </linearGradient>
    <linearGradient
       inkscape:collect="always"
       xlink:href="#linearGradient5"
       id="linearGradient9"
       x1="0.47458494"
       y1="8.8770784"
       x2="26.223319"
       y2="8.8770784"
       gradientUnits="userSpaceOnUse" />
  </defs>
  <g
     inkscape:label="Layer 1"
     inkscape:groupmode="layer"
     id="layer1">
    <rect
       style="fill:#020000;fill-opacity:0.963504;stroke-width:0.266076"
       id="rect1"
       width="52.421001"
       height="18.518198"
       x="0.001681982"
       y="0.0018036778"
       ry="2.5999999" />
    <rect
       style="display:inline;fill:#ff9800;fill-opacity:1;fill-rule:nonzero;stroke-width:0.264088"
       id="rect57"
       width="22.422611"
       height="11"
       x="29.809231"
       y="3.5560617"
       ry="0.9789536" />
    <path
       d="M 35.249564,13.613369 V 9.4723787 c 0,-0.5269637 -0.119931,-0.9182538 -0.359793,-1.1738705 -0.235864,-0.2595493 -0.60765,-0.3893239 -1.115358,-0.3893239 -0.667615,0 -1.157334,0.1828642 -1.469154,0.5485928 -0.307823,0.3657284 -0.461734,0.9693771 -0.461734,1.8109459 v 3.344646 H 30.764146 V 4.4347637 h 1.079379 v 2.689874 c 0,0.3539308 -0.01999,0.6567383 -0.05997,0.9084224 h 0.07196 c 0.195886,-0.3146051 0.473726,-0.5603904 0.833519,-0.7373558 0.359793,-0.1769654 0.765559,-0.2654482 1.217299,-0.2654482 0.79954,0 1.401193,0.1887632 1.804961,0.5662894 0.403767,0.3735936 0.605651,0.9733097 0.605651,1.7991482 V 13.613369 Z M 39.375188,7.1364354 V 11.30692 c 0,0.523031 0.117933,0.912355 0.353796,1.167972 0.239862,0.251684 0.60965,0.377526 1.109362,0.377526 0.67561,0 1.167328,-0.18483 1.47515,-0.554492 0.307823,-0.369661 0.461735,-0.965444 0.461735,-1.78735 V 7.1364354 h 1.085374 v 6.4769336 h -0.887489 l -0.15591,-0.855333 h -0.05397 c -0.195887,0.310673 -0.473728,0.55056 -0.833521,0.71966 -0.359791,0.1691 -0.777552,0.25365 -1.253277,0.25365 -0.791544,0 -1.3892,-0.186796 -1.792968,-0.560391 -0.39977,-0.373593 -0.599655,-0.971343 -0.599655,-1.793249 V 7.1364354 Z m 9.69042,-0.1061793 c 0.867501,0 1.537116,0.2949424 2.008843,0.8848271 0.47173,0.5859521 0.707593,1.4058918 0.707593,2.4598188 0,1.069658 -0.239861,1.897463 -0.719585,2.483415 -0.479724,0.58202 -1.145341,0.873029 -1.996851,0.873029 -0.443744,0 -0.839516,-0.07866 -1.187316,-0.235953 -0.347799,-0.157304 -0.631636,-0.391292 -0.851509,-0.701964 h -0.08395 c -0.123928,0.471908 -0.197886,0.745221 -0.221873,0.81994 H 45.947404 V 4.4347637 h 1.079379 v 2.2297639 c 0,0.4443799 -0.01999,0.8887597 -0.05997,1.3331394 h 0.05997 c 0.443744,-0.6449406 1.123352,-0.9674109 2.038825,-0.9674109 z m -0.179896,0.8789282 c -0.663617,0 -1.139343,0.1848305 -1.427178,0.5544916 -0.287835,0.369661 -0.431751,0.9949387 -0.431751,1.8758331 v 0.04719 c 0,0.884826 0.145916,1.517969 0.437747,1.899428 0.295831,0.377526 0.777552,0.566289 1.445169,0.566289 0.591658,0 1.031405,-0.212358 1.319239,-0.637075 0.291833,-0.42865 0.437748,-1.046063 0.437748,-1.852238 0,-0.8179732 -0.145915,-1.4314533 -0.437748,-1.84044 C 49.937106,8.1136733 49.489365,7.9091799 48.885712,7.9091799 Z"
       id="text1-5"
       style="font-size:11.1676px;-inkscape-font-specification:'sans-serif, Normal';white-space:pre;inline-size:50.3581;stroke-width:1.0907"
       aria-label="hub"
       sodipodi:nodetypes="cscscsccccsccsscscccscsssccccccsscsccscscssccccccsccssssscscssss" />
    <path
       d="m 4.2916356,5.8616072 q -1.2868914,0 -2.0230368,0.8615629 -0.7361455,0.8615628 -0.7361455,2.3556655 0,1.5431794 0.7143337,2.3829304 0.7143338,0.834298 2.0339428,0.834298 0.850657,0 1.9139782,-0.31627 v 0.872469 q -0.5071224,0.185399 -0.9760744,0.250835 -0.4689519,0.07089 -1.07968,0.07089 -1.7612963,0 -2.7155589,-1.068774 -0.94880976,-1.074228 -0.94880976,-3.0372822 0,-1.2323621 0.45259315,-2.1593601 Q 1.3852242,5.9815716 2.25224,5.4799021 3.1247087,4.9782326 4.3025415,4.9782326 q 1.2650796,0 2.2029835,0.4689519 L 6.1020082,6.2978416 Q 5.1477455,5.8616072 4.2916356,5.8616072 Z m 8.7083284,4.1987558 q 0,1.466838 -0.741598,2.29023 -0.741599,0.823393 -2.050302,0.823393 -0.8124863,0 -1.4395732,-0.376252 -0.6270869,-0.381706 -0.9651686,-1.090586 -0.3380816,-0.708881 -0.3380816,-1.646785 0,-1.4613852 0.7306926,-2.2738717 0.7306925,-0.8179394 2.0503018,-0.8179394 1.265079,0 2.006678,0.8342982 0.747051,0.8288453 0.747051,2.2575129 z m -4.5204785,0 q 0,1.128756 0.4416873,1.717673 0.4471402,0.583463 1.3141562,0.583463 0.85611,0 1.30325,-0.583463 0.44714,-0.588917 0.44714,-1.717673 0,-1.1287565 -0.452593,-1.6958612 -0.44714,-0.5725576 -1.314156,-0.5725576 -1.7394845,0 -1.7394845,2.2684188 z m 11.2766585,0 q 0,1.466838 -0.741598,2.29023 -0.741598,0.823393 -2.050302,0.823393 -0.812486,0 -1.439573,-0.376252 -0.627087,-0.381706 -0.965168,-1.090586 -0.338082,-0.708881 -0.338082,-1.646785 0,-1.4613852 0.730692,-2.2738717 0.730693,-0.8179394 2.050302,-0.8179394 1.26508,0 2.006678,0.8342982 0.747051,0.8288453 0.747051,2.2575129 z m -4.520478,0 q 0,1.128756 0.441687,1.717673 0.44714,0.583463 1.314156,0.583463 0.85611,0 1.30325,-0.583463 0.44714,-0.588917 0.44714,-1.717673 0,-1.1287565 -0.452593,-1.6958612 -0.44714,-0.5725576 -1.314156,-0.5725576 -1.739484,0 -1.739484,2.2684188 z M 22.280851,9.984022 22.61348,9.5586935 22.995185,9.1006474 24.909163,7.0776106 h 1.145115 l -2.421101,2.5574239 2.590142,3.4298925 h -1.183286 l -2.077566,-2.7919 -0.681616,0.59437 v 2.19753 H 21.310229 V 4.5801688 h 0.970622 v 4.4332317 l -0.04362,0.9706214 z"
       id="text1"
       style="font-size:11.1676px;-inkscape-font-specification:'sans-serif, Normal';white-space:pre;inline-size:50.3581;fill:url(#linearGradient9);fill-opacity:1"
       transform="matrix(1.0759146,0,0,1.0817757,-0.04998356,-0.52977867)"
       aria-label="Cook"
       sodipodi:insensitive="true" />
  </g>
</svg>
