<?xml version="1.0" encoding="UTF-8" standalone="no"?>
<!-- Created with Inkscape (http://www.inkscape.org/) -->

<svg
   width="198"
   height="70"
   viewBox="0 0 52.387499 18.520833"
   version="1.1"
   id="svg1"
   inkscape:version="1.4 (86a8ad7, 2024-10-11)"
   sodipodi:docname="CH_logoLungo.svg"
   inkscape:export-filename="assets\CH_logoLungo.svg"
   inkscape:export-xdpi="96.004585"
   inkscape:export-ydpi="96.004585"
   inkscape:export-batch-path="assets"
   inkscape:export-batch-name="CH_logoLungo"
   xmlns:inkscape="http://www.inkscape.org/namespaces/inkscape"
   xmlns:sodipodi="http://sodipodi.sourceforge.net/DTD/sodipodi-0.dtd"
   xmlns="http://www.w3.org/2000/svg"
   xmlns:svg="http://www.w3.org/2000/svg">
  <sodipodi:namedview
     id="namedview1"
     pagecolor="#ffffff"
     bordercolor="#000000"
     borderopacity="0.25"
     inkscape:showpageshadow="2"
     inkscape:pageopacity="0.0"
     inkscape:pagecheckerboard="false"
     inkscape:deskcolor="#d1d1d1"
     inkscape:document-units="mm"
     showborder="true"
     labelstyle="default"
     inkscape:clip-to-page="false"
     showgrid="true"
     inkscape:zoom="8"
     inkscape:cx="99.6875"
     inkscape:cy="31.1875"
     inkscape:window-width="2560"
     inkscape:window-height="1417"
     inkscape:window-x="-8"
     inkscape:window-y="-8"
     inkscape:window-maximized="1"
     inkscape:current-layer="layer1"
     inkscape:export-bgcolor="#ffffff00">
    <inkscape:grid
       id="grid45"
       units="mm"
       originx="99"
       originy="35"
       spacingx="0.99999998"
       spacingy="0.99999998"
       empcolor="#0099e5"
       empopacity="0.30196078"
       color="#0099e5"
       opacity="0.14901961"
       empspacing="5"
       enabled="true"
       visible="false"
       dotted="false" />
    <inkscape:page
       x="0"
       y="0"
       width="52.387501"
       height="18.520832"
       id="page2"
       margin="0"
       bleed="0" />
  </sodipodi:namedview>
  <defs
     id="defs1">
    <linearGradient
       id="linearGradient42"
       inkscape:swatch="gradient">
      <stop
         style="stop-color:#000000;stop-opacity:1;"
         offset="0"
         id="stop43" />
      <stop
         style="stop-color:#000000;stop-opacity:0;"
         offset="1"
         id="stop44" />
    </linearGradient>
    <linearGradient
       id="linearGradient37"
       inkscape:swatch="gradient">
      <stop
         style="stop-color:#000000;stop-opacity:1;"
         offset="0"
         id="stop37" />
      <stop
         style="stop-color:#000000;stop-opacity:0;"
         offset="1"
         id="stop38" />
    </linearGradient>
    <linearGradient
       id="swatch36"
       inkscape:swatch="solid">
      <stop
         style="stop-color:#000000;stop-opacity:1;"
         offset="0"
         id="stop36" />
    </linearGradient>
    <linearGradient
       id="swatch14"
       inkscape:swatch="solid">
      <stop
         style="stop-color:#000000;stop-opacity:1;"
         offset="0"
         id="stop14" />
    </linearGradient>
    <linearGradient
       id="swatch13"
       inkscape:swatch="solid">
      <stop
         style="stop-color:#000000;stop-opacity:1;"
         offset="0"
         id="stop13" />
    </linearGradient>
    <linearGradient
       id="swatch7"
       inkscape:swatch="solid">
      <stop
         style="stop-color:#000000;stop-opacity:1;"
         offset="0"
         id="stop7" />
    </linearGradient>
    <linearGradient
       id="swatch6"
       inkscape:swatch="solid">
      <stop
         style="stop-color:#000000;stop-opacity:1;"
         offset="0"
         id="stop6" />
    </linearGradient>
  </defs>
  <g
     inkscape:label="Layer 1"
     inkscape:groupmode="layer"
     id="layer1">
    <rect
       style="fill:#000000;fill-opacity:1;fill-rule:nonzero;stroke-width:0.262173"
       id="rect1"
       width="52.384998"
       height="18.518377"
       x="0.0017967224"
       y="0.001871109"
       ry="2.9000001" />
    <rect
       style="display:inline;fill:#ff9800;fill-opacity:1;fill-rule:nonzero;stroke-width:0.261588"
       id="rect57"
       width="22"
       height="11"
       x="30.231842"
       y="3.5560617"
       ry="0.9789536" />
    <path
       d="M 4.8205698,13.064927 V 9.2369706 q 0,-0.7306926 -0.3271758,-1.085133 -0.3217228,-0.3598934 -1.0142449,-0.3598934 -0.9106392,0 -1.3359677,0.5071225 Q 1.7233058,8.8061891 1.7233058,9.9731161 V 13.064927 H 0.74177849 V 4.5801688 H 1.7233058 v 2.4865358 q 0,0.4907637 -0.054529,0.8397512 h 0.065435 Q 2.0014052,7.4702214 2.4921689,7.2248396 2.9829325,6.9794577 3.5991136,6.9794577 q 1.0905859,0 1.6413318,0.5234813 0.5507458,0.5180283 0.5507458,1.6631435 V 13.064927 Z M 8.5721855,7.0776105 v 3.8552215 q 0,0.725239 0.3217229,1.07968 0.3271757,0.348987 1.0087919,0.348987 0.9215447,0 1.3414207,-0.512575 0.419876,-0.512576 0.419876,-1.652238 V 7.0776105 h 0.98698 v 5.9873165 h -0.807034 l -0.141776,-0.790675 h -0.04908 q -0.267194,0.430782 -0.757958,0.665258 -0.490763,0.234476 -1.1396618,0.234476 -1.07968,0 -1.6304259,-0.518029 -0.545293,-0.518028 -0.545293,-1.65769 V 7.0776105 Z M 17.38412,6.9794577 q 1.183286,0 1.826731,0.8179395 0.643446,0.8124865 0.643446,2.2738718 0,1.483197 -0.654352,2.295683 -0.654351,0.807034 -1.815825,0.807034 -0.605275,0 -1.07968,-0.218117 -0.474405,-0.218118 -0.774316,-0.648899 h -0.07634 q -0.169041,0.654351 -0.201759,0.757957 H 14.548596 V 4.5801688 h 0.981528 v 2.0612073 q 0,0.6161811 -0.05453,1.2323621 h 0.05453 Q 16.135399,6.9794577 17.38412,6.9794577 Z m -0.163588,0.8124865 q -0.905186,0 -1.297797,0.5125754 -0.392611,0.5125754 -0.392611,1.7340314 v 0.04362 q 0,1.226909 0.398064,1.755843 0.403516,0.523481 1.314156,0.523481 0.807033,0 1.199644,-0.588916 0.398064,-0.59437 0.398064,-1.71222 0,-1.1342094 -0.398064,-1.7013141 -0.398064,-0.5671047 -1.221456,-0.5671047 z"
       id="text1-5"
       style="font-size:11.1676px;-inkscape-font-specification:'sans-serif, Normal';white-space:pre;inline-size:50.3581"
       transform="matrix(1.0914885,0,0,1.0817757,30.114663,-0.51995163)"
       aria-label="hub" />
    <path
       d="m 4.2916356,5.8616072 q -1.2868914,0 -2.0230368,0.8615629 -0.7361455,0.8615628 -0.7361455,2.3556655 0,1.5431794 0.7143337,2.3829304 0.7143338,0.834298 2.0339428,0.834298 0.850657,0 1.9139782,-0.31627 v 0.872469 q -0.5071224,0.185399 -0.9760744,0.250835 -0.4689519,0.07089 -1.07968,0.07089 -1.7612963,0 -2.7155589,-1.068774 -0.94880976,-1.074228 -0.94880976,-3.0372822 0,-1.2323621 0.45259315,-2.1593601 Q 1.3852242,5.9815716 2.25224,5.4799021 3.1247087,4.9782326 4.3025415,4.9782326 q 1.2650796,0 2.2029835,0.4689519 L 6.1020082,6.2978416 Q 5.1477455,5.8616072 4.2916356,5.8616072 Z m 8.7083284,4.1987558 q 0,1.466838 -0.741598,2.29023 -0.741599,0.823393 -2.050302,0.823393 -0.8124863,0 -1.4395732,-0.376252 -0.6270869,-0.381706 -0.9651686,-1.090586 -0.3380816,-0.708881 -0.3380816,-1.646785 0,-1.4613852 0.7306926,-2.2738717 0.7306925,-0.8179394 2.0503018,-0.8179394 1.265079,0 2.006678,0.8342982 0.747051,0.8288453 0.747051,2.2575129 z m -4.5204785,0 q 0,1.128756 0.4416873,1.717673 0.4471402,0.583463 1.3141562,0.583463 0.85611,0 1.30325,-0.583463 0.44714,-0.588917 0.44714,-1.717673 0,-1.1287565 -0.452593,-1.6958612 -0.44714,-0.5725576 -1.314156,-0.5725576 -1.7394845,0 -1.7394845,2.2684188 z m 11.2766585,0 q 0,1.466838 -0.741598,2.29023 -0.741598,0.823393 -2.050302,0.823393 -0.812486,0 -1.439573,-0.376252 -0.627087,-0.381706 -0.965168,-1.090586 -0.338082,-0.708881 -0.338082,-1.646785 0,-1.4613852 0.730692,-2.2738717 0.730693,-0.8179394 2.050302,-0.8179394 1.26508,0 2.006678,0.8342982 0.747051,0.8288453 0.747051,2.2575129 z m -4.520478,0 q 0,1.128756 0.441687,1.717673 0.44714,0.583463 1.314156,0.583463 0.85611,0 1.30325,-0.583463 0.44714,-0.588917 0.44714,-1.717673 0,-1.1287565 -0.452593,-1.6958612 -0.44714,-0.5725576 -1.314156,-0.5725576 -1.739484,0 -1.739484,2.2684188 z M 22.280851,9.984022 22.61348,9.5586935 22.995185,9.1006474 24.909163,7.0776106 h 1.145115 l -2.421101,2.5574239 2.590142,3.4298925 h -1.183286 l -2.077566,-2.7919 -0.681616,0.59437 v 2.19753 H 21.310229 V 4.5801688 h 0.970622 v 4.4332317 l -0.04362,0.9706214 z"
       id="text1"
       style="font-size:11.1676px;-inkscape-font-specification:'sans-serif, Normal';white-space:pre;inline-size:50.3581;fill:#ffffff"
       transform="matrix(1.0759146,0,0,1.0817757,-0.04998356,-0.52977867)"
       aria-label="Cook"
       sodipodi:insensitive="true" />
  </g>
</svg>
