<?xml version="1.0" encoding="UTF-8" standalone="no"?>
<!-- Created with Inkscape (http://www.inkscape.org/) -->

<svg
   width="198"
   height="70"
   viewBox="0 0 52.387499 18.520833"
   version="1.1"
   id="svg1"
   inkscape:version="1.4 (86a8ad7, 2024-10-11)"
   sodipodi:docname="CH_logoLungoBlack.svg"
   inkscape:export-filename="assets\assets\assets\assets\assets\assets\assets\assets\assets\assets\assets\assets\assets\assets\assets\assets\assets\assets\assets\assets\assets\assets\CH_logoLungoBlack.svg"
   inkscape:export-xdpi="96.004585"
   inkscape:export-ydpi="96.004585"
   inkscape:export-batch-path="assets"
   inkscape:export-batch-name="CH_logoLungo"
   xmlns:inkscape="http://www.inkscape.org/namespaces/inkscape"
   xmlns:sodipodi="http://sodipodi.sourceforge.net/DTD/sodipodi-0.dtd"
   xmlns:xlink="http://www.w3.org/1999/xlink"
   xmlns="http://www.w3.org/2000/svg"
   xmlns:svg="http://www.w3.org/2000/svg">
  <sodipodi:namedview
     id="namedview1"
     pagecolor="#000000"
     bordercolor="#000000"
     borderopacity="0.24705882"
     inkscape:showpageshadow="2"
     inkscape:pageopacity="0.0"
     inkscape:pagecheckerboard="false"
     inkscape:deskcolor="#d1d1d1"
     inkscape:document-units="mm"
     showborder="true"
     labelstyle="default"
     inkscape:clip-to-page="false"
     showgrid="true"
     inkscape:zoom="8.0000001"
     inkscape:cx="116.3125"
     inkscape:cy="41.0625"
     inkscape:window-width="2560"
     inkscape:window-height="1417"
     inkscape:window-x="-8"
     inkscape:window-y="-8"
     inkscape:window-maximized="1"
     inkscape:current-layer="layer1"
     inkscape:export-bgcolor="#ffffff00">
    <inkscape:grid
       id="grid45"
       units="mm"
       originx="99"
       originy="35"
       spacingx="0.99999998"
       spacingy="0.99999998"
       empcolor="#0099e5"
       empopacity="0.30196078"
       color="#0099e5"
       opacity="0.14901961"
       empspacing="5"
       enabled="true"
       visible="false"
       dotted="false" />
    <inkscape:page
       x="0"
       y="0"
       width="52.387501"
       height="18.520832"
       id="page2"
       margin="0"
       bleed="0" />
    <inkscape:grid
       id="grid1"
       units="mm"
       originx="0"
       originy="0"
       spacingx="0.99999998"
       spacingy="0.99999998"
       empcolor="#0099e5"
       empopacity="0.30196078"
       color="#0099e5"
       opacity="0.14901961"
       empspacing="5"
       enabled="true"
       visible="true" />
  </sodipodi:namedview>
  <defs
     id="defs1">
    <linearGradient
       id="linearGradient5"
       inkscape:collect="always">
      <stop
         style="stop-color:#ffffff;stop-opacity:1;"
         offset="1"
         id="stop8" />
      <stop
         style="stop-color:#020000;stop-opacity:0;"
         offset="1"
         id="stop9" />
    </linearGradient>
    <linearGradient
       id="linearGradient42"
       inkscape:swatch="gradient">
      <stop
         style="stop-color:#000000;stop-opacity:1;"
         offset="0"
         id="stop43" />
      <stop
         style="stop-color:#000000;stop-opacity:0;"
         offset="1"
         id="stop44" />
    </linearGradient>
    <linearGradient
       id="linearGradient37"
       inkscape:swatch="gradient">
      <stop
         style="stop-color:#000000;stop-opacity:1;"
         offset="0"
         id="stop37" />
      <stop
         style="stop-color:#000000;stop-opacity:0;"
         offset="1"
         id="stop38" />
    </linearGradient>
    <linearGradient
       id="swatch36"
       inkscape:swatch="solid">
      <stop
         style="stop-color:#000000;stop-opacity:1;"
         offset="0"
         id="stop36" />
    </linearGradient>
    <linearGradient
       id="swatch14"
       inkscape:swatch="solid">
      <stop
         style="stop-color:#000000;stop-opacity:1;"
         offset="0"
         id="stop14" />
    </linearGradient>
    <linearGradient
       id="swatch13"
       inkscape:swatch="solid">
      <stop
         style="stop-color:#000000;stop-opacity:1;"
         offset="0"
         id="stop13" />
    </linearGradient>
    <linearGradient
       id="swatch7"
       inkscape:swatch="solid">
      <stop
         style="stop-color:#000000;stop-opacity:1;"
         offset="0"
         id="stop7" />
    </linearGradient>
    <linearGradient
       id="swatch6"
       inkscape:swatch="solid">
      <stop
         style="stop-color:#000000;stop-opacity:1;"
         offset="0"
         id="stop6" />
    </linearGradient>
    <linearGradient
       inkscape:collect="always"
       xlink:href="#linearGradient5"
       id="linearGradient9"
       x1="0.47458494"
       y1="8.8770784"
       x2="26.223319"
       y2="8.8770784"
       gradientUnits="userSpaceOnUse" />
  </defs>
  <g
     inkscape:label="Layer 1"
     inkscape:groupmode="layer"
     id="layer1">
    <rect
       style="display:inline;fill:#ff9800;fill-opacity:1;fill-rule:nonzero;stroke-width:0.274094"
       id="rect57"
       width="22.290318"
       height="11.919624"
       x="29.776159"
       y="3.0836391"
       ry="1.0607963" />
    <path
       d="M 35.05,13.61 V 9.47 C 35.05,8.94 34.93,8.55 34.69,8.3 34.45,8.04 34.08,7.91 33.57,7.91 c -0.67,0 -1.16,0.18 -1.47,0.55 -0.31,0.37 -0.46,0.97 -0.46,1.81 v 3.34 H 30.56 V 4.43 h 1.08 v 2.69 c 0,0.35 -0.02,0.66 -0.06,0.91 h 0.07 c 0.2,-0.31 0.47,-0.56 0.83,-0.74 0.36,-0.18 0.77,-0.27 1.22,-0.27 0.8,0 1.4,0.19 1.8,0.57 0.4,0.37 0.61,0.97 0.61,1.8 v 4.22 z m 4.13,-6.47 v 4.17 c 0,0.52 0.12,0.91 0.35,1.17 0.24,0.25 0.61,0.38 1.11,0.38 0.68,0 1.17,-0.18 1.48,-0.55 0.31,-0.37 0.46,-0.97 0.46,-1.79 V 7.14 h 1.09 v 6.48 h -0.89 l -0.16,-0.86 h -0.05 c -0.2,0.31 -0.47,0.55 -0.83,0.72 -0.36,0.17 -0.78,0.25 -1.25,0.25 -0.79,0 -1.39,-0.19 -1.79,-0.56 C 38.3,12.8 38.1,12.2 38.1,11.38 V 7.14 Z m 9.69,-0.11 c 0.87,0 1.54,0.29 2.01,0.88 0.47,0.59 0.71,1.41 0.71,2.46 0,1.07 -0.24,1.9 -0.72,2.48 -0.48,0.58 -1.15,0.87 -2,0.87 -0.44,0 -0.84,-0.08 -1.19,-0.24 -0.35,-0.16 -0.63,-0.39 -0.85,-0.7 h -0.08 c -0.12,0.47 -0.2,0.75 -0.22,0.82 H 45.75 V 4.43 h 1.08 v 2.23 c 0,0.44 -0.02,0.89 -0.06,1.33 h 0.06 c 0.44,-0.64 1.12,-0.97 2.04,-0.97 z m -0.18,0.88 c -0.66,0 -1.14,0.18 -1.43,0.55 -0.29,0.37 -0.43,0.99 -0.43,1.88 v 0.05 c 0,0.88 0.15,1.52 0.44,1.9 0.3,0.38 0.78,0.57 1.45,0.57 0.59,0 1.03,-0.21 1.32,-0.64 0.29,-0.43 0.44,-1.05 0.44,-1.85 0,-0.82 -0.15,-1.43 -0.44,-1.84 -0.3,-0.42 -0.75,-0.62 -1.35,-0.62 z"
       id="text1-5"
       style="font-size:11.1676px;-inkscape-font-specification:'sans-serif, Normal';white-space:pre;inline-size:50.3581;stroke-width:1.0907"
       aria-label="hub"
       sodipodi:nodetypes="cscscsccccsccsscscccscsssccccccsscsccscscssccccccsccssssscscssss" />
    <path
       d="m 4.2916356,5.8616072 q -1.2868914,0 -2.0230368,0.8615629 -0.7361455,0.8615628 -0.7361455,2.3556655 0,1.5431794 0.7143337,2.3829304 0.7143338,0.834298 2.0339428,0.834298 0.850657,0 1.9139782,-0.31627 v 0.872469 q -0.5071224,0.185399 -0.9760744,0.250835 -0.4689519,0.07089 -1.07968,0.07089 -1.7612963,0 -2.7155589,-1.068774 -0.94880976,-1.074228 -0.94880976,-3.0372822 0,-1.2323621 0.45259315,-2.1593601 Q 1.3852242,5.9815716 2.25224,5.4799021 3.1247087,4.9782326 4.3025415,4.9782326 q 1.2650796,0 2.2029835,0.4689519 L 6.1020082,6.2978416 Q 5.1477455,5.8616072 4.2916356,5.8616072 Z m 8.7083284,4.1987558 q 0,1.466838 -0.741598,2.29023 -0.741599,0.823393 -2.050302,0.823393 -0.8124863,0 -1.4395732,-0.376252 -0.6270869,-0.381706 -0.9651686,-1.090586 -0.3380816,-0.708881 -0.3380816,-1.646785 0,-1.4613852 0.7306926,-2.2738717 0.7306925,-0.8179394 2.0503018,-0.8179394 1.265079,0 2.006678,0.8342982 0.747051,0.8288453 0.747051,2.2575129 z m -4.5204785,0 q 0,1.128756 0.4416873,1.717673 0.4471402,0.583463 1.3141562,0.583463 0.85611,0 1.30325,-0.583463 0.44714,-0.588917 0.44714,-1.717673 0,-1.1287565 -0.452593,-1.6958612 -0.44714,-0.5725576 -1.314156,-0.5725576 -1.7394845,0 -1.7394845,2.2684188 z m 11.2766585,0 q 0,1.466838 -0.741598,2.29023 -0.741598,0.823393 -2.050302,0.823393 -0.812486,0 -1.439573,-0.376252 -0.627087,-0.381706 -0.965168,-1.090586 -0.338082,-0.708881 -0.338082,-1.646785 0,-1.4613852 0.730692,-2.2738717 0.730693,-0.8179394 2.050302,-0.8179394 1.26508,0 2.006678,0.8342982 0.747051,0.8288453 0.747051,2.2575129 z m -4.520478,0 q 0,1.128756 0.441687,1.717673 0.44714,0.583463 1.314156,0.583463 0.85611,0 1.30325,-0.583463 0.44714,-0.588917 0.44714,-1.717673 0,-1.1287565 -0.452593,-1.6958612 -0.44714,-0.5725576 -1.314156,-0.5725576 -1.739484,0 -1.739484,2.2684188 z M 22.280851,9.984022 22.61348,9.5586935 22.995185,9.1006474 24.909163,7.0776106 h 1.145115 l -2.421101,2.5574239 2.590142,3.4298925 h -1.183286 l -2.077566,-2.7919 -0.681616,0.59437 v 2.19753 H 21.310229 V 4.5801688 h 0.970622 v 4.4332317 l -0.04362,0.9706214 z"
       id="text1"
       style="font-size:11.1676px;-inkscape-font-specification:'sans-serif, Normal';white-space:pre;inline-size:50.3581;fill:url(#linearGradient9);fill-opacity:1"
       transform="matrix(1.0759146,0,0,1.0817757,-0.04998356,-0.52977867)"
       aria-label="Cook"
       sodipodi:insensitive="true" />
  </g>
</svg>
